<?xml version="1.0" encoding="utf-8"?>
<!-- Svg Vector Icons : http://www.onlinewebfonts.com/icon -->
<!DOCTYPE svg PUBLIC "-//W3C//DTD SVG 1.1//EN" "http://www.w3.org/Graphics/SVG/1.1/DTD/svg11.dtd">
<svg version="1.1" xmlns="http://www.w3.org/2000/svg" xmlns:xlink="http://www.w3.org/1999/xlink" x="0px" y="0px" viewBox="0 0 1000 1000" enable-background="new 0 0 1000 1000" xml:space="preserve">
<metadata> Svg Vector Icons : http://www.onlinewebfonts.com/icon </metadata>
<g><g transform="translate(0.000000,512.000000) scale(0.100000,-0.100000)"><path d="M8206.3,4689.9c-816.5-182.1-1487.4-333.5-1489.3-333.5c-3.8,0-680.4-899-1504.6-1997.3C3581.2,183.6,3640.6,275.6,3747.9,170.2c51.8-51.8,122.7-63.3,185.9-28.8c21.1,9.6,695.8,897,1502.7,1970.4l1462.5,1953.2l141.8,30.7c76.7,17.2,599.9,132.2,1163.5,258.8L9226,4580.7L6789.8,2144.5C4415-232.3,4353.6-293.6,4353.6-364.5c0-99.7,67.1-166.8,166.8-166.8c70.9,0,132.3,59.4,2501.4,2428.5c1337.9,1336,2430.4,2420.9,2430.4,2411.3c0-11.5-113.1-530.9-253-1157.7l-253-1138.5L6996.8,549.7C5923.4-255.3,5036-930,5026.4-951.1c-34.5-63.3-23-134.2,28.8-185.9c105.4-107.3,15.3-166.7,2187,1462.5c1098.3,824.2,2001.1,1514.2,2004.9,1533.4c5.7,19.2,159.1,705.4,341.2,1523.8c293.3,1324.5,327.8,1495.1,306.7,1544.9c-24.9,59.4-92,101.6-161,97.8C9710.9,5023.4,9022.8,4873.9,8206.3,4689.9z"/><path d="M2341,931.2c-93.9-34.5-299-300.9-377.6-488.8c-44.1-103.5-51.7-149.5-51.7-312.4c-1.9-341.2,74.8-477.3,513.7-925.8l306.7-312.4l-759-759l-760.9-760.9l-115,109.3c-63.3,59.4-136.1,116.9-164.8,128.4c-72.8,26.8-214.7,23-274.1-7.7c-74.8-40.2-515.6-492.6-538.6-553.9c-30.7-82.4-24.9-180.2,15.3-258.8c55.6-105.4,1470.2-1510.4,1558.3-1546.8c170.6-69,268.3-21.1,555.9,272.2c122.7,124.6,233.8,251.1,243.4,281.8c53.7,138,11.5,270.3-134.2,425.5l-101.6,105.4l760.9,761l761,761l300.9-300.9c166.8-164.8,358.4-333.5,425.5-377.6c333.5-214.7,686.2-207,1031.2,23c191.7,128.4,281.8,228.1,281.8,310.5c0,65.2-82.4,151.4-1675.2,1744.2C3040.6,348.5,2448.4,927.3,2417.7,933.1C2390.9,938.8,2356.4,936.9,2341,931.2z M3910.8-979.8c1219.1-1219.1,1498.9-1508.5,1481.7-1531.5c-11.5-13.4-72.8-51.8-132.3-82.4c-92-46-134.2-55.6-254.9-55.6c-237.7,0-304.8,44.1-762.9,496.4c-373.8,369.9-392.9,385.3-465.8,385.3c-74.8,0-90.1-15.3-914.3-839.5l-837.6-837.6L1881-3301c-76.7,78.6-164.8,147.6-191.7,153.3c-109.3,24.9-199.3-53.7-195.5-170.6c1.9-47.9,59.4-115,352.7-408.3l350.8-350.8L2005.6-4269l-191.7-191.7l-695.8,695.8L424.3-3071L616-2879.3l189.8,189.8l170.6-166.8c145.7-141.8,180.2-166.8,235.8-166.8c59.4,0,132.3,67.1,908.5,843.4l843.4,843.4l162.9-162.9c90.1-90.1,178.3-168.7,197.4-174.4c95.8-30.7,205.1,55.6,205.1,162.9c0,61.3-42.2,109.3-590.4,661.3c-488.8,492.6-601.9,615.3-646,709.2c-63.2,132.3-82.4,283.7-47.9,404.4c24.9,90.1,122.7,258.8,147.6,258.8C2402.4,522.9,3084.7-153.7,3910.8-979.8z"/></g></g>
</svg>